<svg width="20" height="14" viewBox="0 0 20 14" fill="none" xmlns="http://www.w3.org/2000/svg">
<path d="M7.99086 6.10602C7.99086 6.10602 9.86461 5.96692 9.86461 3.76966C9.86461 1.57225 8.33164 0.499878 6.38981 0.499878H0V12.7793H6.38981C6.38981 12.7793 10.2906 12.9025 10.2906 9.15499C10.2906 9.15503 10.4606 6.10602 7.99086 6.10602ZM5.92988 2.68241H6.38981C6.38981 2.68241 7.25838 2.68241 7.25838 3.96003C7.25838 5.2375 6.74757 5.42271 6.16818 5.42271H2.81543V2.68241H5.92988ZM6.20925 10.5969H2.81543V7.31533H6.38981C6.38981 7.31533 7.68437 7.29836 7.68437 9.0017C7.68437 10.438 6.71746 10.586 6.20925 10.5969ZM15.4929 3.62413C10.7706 3.62413 10.7748 8.34226 10.7748 8.34226C10.7748 8.34226 10.4508 13.0362 15.4929 13.0362C15.4929 13.0362 19.6946 13.2762 19.6946 9.77088H17.5337C17.5337 9.77088 17.6058 11.0909 15.5649 11.0909C15.5649 11.0909 13.4037 11.2358 13.4037 8.95459H19.7667C19.7667 8.95455 20.4629 3.62413 15.4929 3.62413ZM13.38 7.31533C13.38 7.31533 13.6438 5.42267 15.5409 5.42267C17.4375 5.42267 17.4138 7.31533 17.4138 7.31533H13.38ZM17.9172 2.73542H12.851V1.22329H17.9172V2.73542Z" fill="#121008"/>
</svg>
