<svg width="18" height="19" viewBox="0 0 18 19" fill="none" xmlns="http://www.w3.org/2000/svg">
<path fill-rule="evenodd" clip-rule="evenodd" d="M2.26668 15.4351C0.755884 13.7229 0.000488281 11.7445 0.000488281 9.49988C0.000488281 9.44232 0.00409257 9.37038 0.0112796 9.28405C0.0184883 9.19772 0.022071 9.12578 0.022071 9.06822C0.295459 9.08262 0.712718 9.08981 1.27387 9.08981C4.15158 9.08981 6.82784 8.69413 9.30265 7.90276C9.5041 8.30564 9.71272 8.75888 9.92854 9.26247C8.50408 9.57902 7.04367 10.3488 5.54725 11.5718C4.05085 12.7948 2.95732 14.0826 2.26668 15.4351ZM1.68394 7.32002C1.06525 7.32002 0.597618 7.30563 0.281064 7.27686C0.612013 6.03945 1.18396 4.90994 1.99689 3.88837C2.80985 2.86679 3.78467 2.06823 4.92135 1.49268C6.23071 2.78765 7.43216 4.40635 8.52567 6.3488C6.36739 6.99628 4.08683 7.32002 1.68394 7.32002ZM9.00049 18.4999C6.95734 18.4999 5.1228 17.8668 3.49689 16.6006C4.14437 15.32 5.14078 14.097 6.4861 12.9315C7.83144 11.7661 9.16596 11.0394 10.4897 10.7517C11.3242 13.0538 11.8854 15.4351 12.1731 17.8956C11.1228 18.2984 10.0653 18.4999 9.00049 18.4999ZM10.317 5.70132C9.2379 3.74448 8.06524 2.1114 6.79905 0.802036C7.53286 0.600605 8.26667 0.499878 9.00049 0.499878C11.1588 0.499878 13.0724 1.19053 14.7415 2.57182C13.7487 3.83801 12.2739 4.88117 10.317 5.70132ZM11.8278 8.98189C11.5545 8.27685 11.3098 7.69412 11.094 7.23369C13.3242 6.25528 14.907 5.06823 15.8422 3.67254C17.1372 5.19773 17.8422 6.93872 17.9573 8.89556C17.0796 8.8524 16.1947 8.83081 15.3026 8.83081C14.0508 8.83081 12.8926 8.88117 11.8278 8.98189ZM13.8566 17.0538C13.5976 14.8092 13.1012 12.6222 12.3674 10.4927C13.3746 10.4207 14.2739 10.3848 15.0652 10.3848C15.9285 10.3848 16.8854 10.4207 17.9357 10.4927C17.7919 11.8308 17.3602 13.0754 16.6408 14.2265C15.9214 15.3776 14.9933 16.32 13.8566 17.0538Z" fill="#121008"/>
</svg>
