<svg width="18" height="18" viewBox="0 0 18 18" fill="none" xmlns="http://www.w3.org/2000/svg">
<path d="M0 2.49122C0 1.91401 0.202708 1.43782 0.608108 1.06265C1.01351 0.687462 1.54055 0.499878 2.18919 0.499878C2.82626 0.499878 3.34169 0.68457 3.73552 1.05399C4.14092 1.43494 4.34363 1.93132 4.34363 2.54317C4.34363 3.09728 4.14672 3.55903 3.7529 3.92845C3.3475 4.3094 2.81467 4.49988 2.15444 4.49988H2.13707C1.49999 4.49988 0.984562 4.3094 0.590734 3.92845C0.196905 3.5475 0 3.06841 0 2.49122ZM0.225869 17.6427V6.07563H4.08301V17.6427H0.225869ZM6.22008 17.6427H10.0772V11.1839C10.0772 10.7798 10.1236 10.4681 10.2162 10.2488C10.3784 9.85629 10.6245 9.52439 10.9546 9.25312C11.2847 8.98183 11.6988 8.8462 12.1969 8.8462C13.4942 8.8462 14.1429 9.71776 14.1429 11.4609V17.6427H18V11.0107C18 9.30218 17.5946 8.00637 16.7838 7.12325C15.973 6.24014 14.9015 5.79858 13.5695 5.79858C12.0753 5.79858 10.9112 6.43927 10.0772 7.72065V7.75529H10.0598L10.0772 7.72065V6.07563H6.22008C6.24324 6.44504 6.25483 7.59366 6.25483 9.52152C6.25483 11.4494 6.24324 14.1564 6.22008 17.6427Z" fill="#121008"/>
</svg>
