<svg width="20" height="21" viewBox="0 0 20 21" fill="none" xmlns="http://www.w3.org/2000/svg">
<path d="M3 7.96048C3 7.20464 3.15837 6.45421 3.4769 5.71097C3.79543 4.96773 4.25073 4.27668 4.8446 3.64141C5.43847 3.00615 6.2177 2.48966 7.1841 2.09375C8.15049 1.69784 9.22126 1.49988 10.3964 1.49988C12.304 1.49988 13.8697 2.08835 15.0934 3.2635C16.3171 4.43864 16.929 5.82434 16.929 7.4206C16.929 9.47215 16.4107 11.1674 15.3723 12.5045C14.334 13.8416 12.9932 14.5111 11.3502 14.5111C10.8103 14.5111 10.3028 14.3851 9.82952 14.1331C9.35623 13.8812 9.0233 13.5753 8.83074 13.2153L8.1109 16.0587C8.05151 16.2873 7.97233 16.5176 7.87695 16.7516C7.78157 16.9855 7.67539 17.2105 7.56201 17.4264C7.44864 17.6424 7.33346 17.8457 7.22009 18.0383C7.10671 18.2309 6.99154 18.4108 6.87816 18.5782C6.76479 18.7456 6.66581 18.8877 6.58123 19.0011C6.49664 19.1145 6.41926 19.2134 6.34728 19.298L6.2393 19.442C6.20331 19.4906 6.15472 19.5086 6.09533 19.496C6.03594 19.4834 5.99995 19.4474 5.98735 19.388C5.98735 19.3754 5.97836 19.2926 5.96036 19.1361C5.94236 18.9795 5.92437 18.8157 5.90637 18.6412C5.88838 18.4666 5.87038 18.2417 5.85238 17.9663C5.83439 17.691 5.82899 17.4228 5.83439 17.1655C5.83979 16.9081 5.85778 16.622 5.88838 16.3107C5.91897 15.9993 5.96396 15.7114 6.02335 15.4469C6.15472 14.8836 6.59922 13.0048 7.35506 9.81408C7.25968 9.62152 7.1805 9.39117 7.12111 9.12123C7.06172 8.85129 7.03113 8.63174 7.03113 8.46437L7.01313 8.19443C7.01313 7.426 7.20749 6.78714 7.59801 6.27784C7.98852 5.76856 8.45822 5.51301 9.0107 5.51301C9.4552 5.51301 9.79893 5.66058 10.0455 5.95392C10.292 6.24725 10.4144 6.61617 10.4144 7.06068C10.4144 7.33602 10.364 7.67614 10.2614 8.07746C10.1589 8.47877 10.0239 8.94127 9.85652 9.46316C9.68915 9.98504 9.56858 10.408 9.4966 10.7319C9.37602 11.2718 9.4822 11.7397 9.81153 12.1356C10.1409 12.5315 10.5818 12.7295 11.1342 12.7295C12.0826 12.7295 12.8655 12.1932 13.4827 11.1188C14.1 10.0444 14.4095 8.74691 14.4095 7.22264C14.4095 6.05829 14.0316 5.1081 13.2758 4.37026C12.5199 3.63242 11.4636 3.2635 10.1085 3.2635C8.59679 3.2635 7.36946 3.74939 6.42826 4.72118C5.48706 5.69297 5.01556 6.85732 5.01556 8.21243C5.01556 9.01685 5.24412 9.69351 5.69942 10.246C5.85598 10.4259 5.90277 10.6185 5.84339 10.8219C5.81999 10.8812 5.784 11.0198 5.73541 11.2358C5.68682 11.4517 5.65083 11.5903 5.62743 11.6497C5.60404 11.7811 5.54285 11.8692 5.44747 11.9106C5.35209 11.952 5.24412 11.9502 5.12354 11.9016C4.41629 11.6137 3.88541 11.1188 3.53089 10.417C3.17636 9.7151 3 8.89628 3 7.96048Z" fill="#121008"/>
</svg>
