<svg width="20" height="21" viewBox="0 0 20 21" fill="none" xmlns="http://www.w3.org/2000/svg">
<path d="M13.0271 3.50312V3.49988H13.8711L14.1794 3.56147C14.385 3.60146 14.5717 3.65386 14.7394 3.71869C14.9071 3.78353 15.0694 3.85917 15.2263 3.94561C15.3832 4.03205 15.5255 4.12013 15.6532 4.20981C15.7798 4.29842 15.8934 4.39243 15.9941 4.49183C16.0936 4.59232 16.2489 4.61826 16.4599 4.56963C16.6709 4.52101 16.8981 4.45347 17.1416 4.36703C17.385 4.28059 17.6258 4.18334 17.8638 4.07528C18.1019 3.96721 18.2469 3.8986 18.2988 3.86943C18.3497 3.83918 18.3768 3.82298 18.38 3.8208L18.3832 3.81594L18.3995 3.80784L18.4157 3.79973L18.4319 3.79163L18.4482 3.78353L18.4514 3.77866L18.4563 3.77542L18.4612 3.77218L18.4644 3.76732L18.4806 3.76245L18.4968 3.75921L18.4936 3.78353L18.4887 3.80784L18.4806 3.83215L18.4725 3.85646L18.4644 3.87267L18.4563 3.88888L18.4482 3.91319C18.4427 3.9294 18.4373 3.95101 18.4319 3.97803C18.4265 4.00505 18.3751 4.11309 18.2777 4.30219C18.1803 4.4913 18.0586 4.68309 17.9125 4.87759C17.7665 5.07209 17.6355 5.21904 17.5198 5.31846C17.4029 5.41895 17.3255 5.48918 17.2876 5.52917C17.2498 5.57023 17.2038 5.60804 17.1497 5.64263L17.0685 5.69612L17.0523 5.70422L17.0361 5.71233L17.0328 5.71719L17.028 5.72043L17.0231 5.72367L17.0198 5.72853L17.0036 5.73664L16.9874 5.74474L16.9841 5.74961L16.9793 5.75285L16.9744 5.75609L16.9711 5.76095L16.9679 5.76581L16.963 5.76906L16.9582 5.7723L16.9549 5.77716H17.0361L17.4905 5.67991C17.7935 5.61508 18.083 5.53674 18.3589 5.44489L18.7971 5.29901L18.8458 5.2828L18.8702 5.2747L18.8864 5.26659L18.9026 5.25849L18.9188 5.25039L18.9351 5.24228L18.9675 5.23742L19 5.23418V5.26659L18.9919 5.26984L18.9838 5.2747L18.9805 5.27956L18.9757 5.2828L18.9708 5.28604L18.9675 5.29091L18.9643 5.29577L18.9594 5.29901L18.9546 5.30225L18.9513 5.30712L18.9481 5.31198L18.9432 5.31522L18.9351 5.33143L18.927 5.34764L18.9221 5.35088C18.9199 5.35412 18.8512 5.44596 18.716 5.62642C18.5807 5.80796 18.5077 5.89979 18.4968 5.90196C18.486 5.90521 18.4709 5.92141 18.4514 5.95059C18.433 5.98083 18.3183 6.10133 18.1073 6.31204C17.8963 6.52275 17.6897 6.71021 17.4873 6.87447C17.2839 7.03979 17.1811 7.24293 17.1789 7.4839C17.1757 7.72379 17.1632 7.99502 17.1416 8.29757C17.1199 8.60013 17.0794 8.92699 17.0198 9.27818C16.9603 9.62936 16.8684 10.0265 16.7439 10.4695C16.6195 10.9125 16.468 11.3447 16.2894 11.7662C16.1109 12.1876 15.9243 12.5658 15.7295 12.9008C15.5347 13.2357 15.3562 13.5194 15.1939 13.7517C15.0316 13.984 14.8666 14.2028 14.6988 14.4081C14.5311 14.6134 14.319 14.8447 14.0626 15.1019C13.8051 15.3579 13.6644 15.4984 13.6406 15.5233C13.6157 15.5471 13.5097 15.6357 13.3225 15.7891C13.1363 15.9436 12.9362 16.0981 12.7219 16.2527C12.5088 16.4061 12.3129 16.5341 12.1344 16.6368C11.9558 16.7394 11.7405 16.8567 11.4884 16.9885C11.2373 17.1214 10.9657 17.2446 10.6736 17.3581C10.3814 17.4715 10.073 17.5769 9.74842 17.6741C9.42381 17.7714 9.11001 17.847 8.80703 17.901C8.50407 17.9551 8.16051 18.001 7.77637 18.0388L7.20018 18.0955V18.1037H6.14518V18.0955L6.00721 18.0874C5.91525 18.082 5.8395 18.0766 5.77998 18.0712C5.72048 18.0658 5.49594 18.0361 5.1064 17.9821C4.71686 17.9281 4.41119 17.874 4.18936 17.82C3.96755 17.766 3.63751 17.6633 3.19928 17.512C2.76105 17.3608 2.38611 17.2079 2.07448 17.0533C1.76394 16.8999 1.56917 16.8027 1.49017 16.7616C1.41226 16.7216 1.32462 16.6719 1.22723 16.6125L1.08115 16.5233L1.07792 16.5185L1.07304 16.5152L1.06817 16.512L1.06492 16.5071L1.04869 16.499L1.03246 16.4909L1.02923 16.4861L1.02435 16.4828L1.01948 16.4796L1.01623 16.4747L1.013 16.4698L1.00812 16.4666H1V16.4342L1.01623 16.4374L1.03246 16.4423L1.1055 16.4504C1.15419 16.4558 1.28675 16.4639 1.50316 16.4747C1.71958 16.4855 1.9495 16.4855 2.19297 16.4747C2.43643 16.4639 2.68531 16.4396 2.93959 16.4018C3.19387 16.364 3.49414 16.2991 3.8404 16.2073C4.18667 16.1154 4.50479 16.0063 4.79479 15.8799C5.08369 15.7524 5.28927 15.6573 5.41156 15.5946C5.53274 15.533 5.71777 15.4185 5.96664 15.251L6.33995 14.9997L6.34319 14.9949L6.34806 14.9916L6.35295 14.9884L6.35618 14.9835L6.35942 14.9787L6.36429 14.9754L6.36918 14.9722L6.37241 14.9673L6.38864 14.9625L6.40487 14.9592L6.40812 14.943L6.41298 14.9268L6.41787 14.9236L6.4211 14.9187L6.29125 14.9106C6.20469 14.9052 6.12083 14.8998 6.03968 14.8944C5.95852 14.889 5.83139 14.8647 5.65825 14.8215C5.48513 14.7782 5.29848 14.7134 5.09829 14.627C4.89811 14.5405 4.70334 14.4378 4.51398 14.319C4.32463 14.2001 4.18774 14.1012 4.10334 14.0224C4.02002 13.9446 3.91181 13.8344 3.77872 13.6917C3.64671 13.548 3.53201 13.4005 3.43463 13.2492C3.33724 13.098 3.24419 12.9234 3.15547 12.7257L3.02074 12.4307L3.01262 12.4064L3.00451 12.3821L2.99964 12.3659L2.99639 12.3497L3.02074 12.3529L3.04509 12.3578L3.22362 12.3821C3.34266 12.3983 3.52932 12.4037 3.78359 12.3983C4.03788 12.3929 4.21371 12.3821 4.31109 12.3659C4.40848 12.3497 4.46799 12.3389 4.48963 12.3335L4.52209 12.3254L4.56267 12.3173L4.60325 12.3091L4.60649 12.3043L4.61136 12.301L4.61625 12.2978L4.61948 12.2929L4.58702 12.2848L4.55455 12.2767L4.52209 12.2686L4.48963 12.2605L4.45717 12.2524C4.43553 12.247 4.39767 12.2362 4.34355 12.22C4.28946 12.2038 4.14338 12.1444 3.90532 12.0417C3.66728 11.9391 3.47791 11.8391 3.33724 11.7419C3.19622 11.6443 3.06176 11.5377 2.93472 11.4225C2.80812 11.3058 2.66908 11.1556 2.51758 10.972C2.3661 10.7883 2.23085 10.5748 2.11181 10.3317C1.99279 10.0886 1.90352 9.85628 1.844 9.63476C1.78472 9.41454 1.74561 9.1894 1.72716 8.96211L1.69793 8.62174L1.71416 8.62498L1.73039 8.62984L1.74662 8.63794L1.76285 8.64605L1.77908 8.65415L1.79531 8.66226L2.04689 8.77571C2.21462 8.85136 2.42291 8.91619 2.67178 8.97022C2.92066 9.02424 3.06943 9.05396 3.11812 9.05936L3.19116 9.06747H3.33724L3.33401 9.0626L3.32913 9.05936L3.32426 9.05612L3.32101 9.05126L3.31778 9.0464L3.31289 9.04315L3.30803 9.03991L3.30478 9.03505L3.28855 9.02695L3.27232 9.01884L3.26909 9.01398L3.2642 9.01074L3.25933 9.00749L3.25609 9.00263L3.23986 8.99453L3.22362 8.98642L3.22039 8.98156C3.21715 8.97939 3.17061 8.94482 3.08079 8.87783C2.99206 8.80975 2.89901 8.72169 2.80162 8.61363C2.70424 8.50557 2.60685 8.39211 2.50947 8.27325C2.4119 8.15413 2.32501 8.02667 2.24977 7.89236C2.17404 7.75729 2.09396 7.58547 2.00956 7.37693C1.92625 7.16946 1.86294 6.96037 1.81966 6.74966C1.77639 6.53895 1.75204 6.33095 1.74662 6.12564C1.74121 5.92033 1.74662 5.74474 1.76285 5.59887C1.77908 5.45299 1.81154 5.2882 1.86023 5.10451C1.90893 4.92082 1.97927 4.72632 2.07124 4.52101L2.2092 4.21305L2.21731 4.18874L2.22543 4.16442L2.23031 4.16118L2.23354 4.15632L2.23679 4.15146L2.24166 4.14821L2.24654 4.15146L2.24977 4.15632L2.25302 4.16118L2.25789 4.16442L2.26278 4.16766L2.26601 4.17253L2.26925 4.17739L2.27412 4.18063L2.28224 4.19684L2.29035 4.21305L2.29524 4.21629L2.29847 4.22115L2.51758 4.46428C2.66366 4.62636 2.8368 4.80736 3.03697 5.00726C3.23716 5.20716 3.34807 5.31089 3.3697 5.31846C3.39135 5.3271 3.41839 5.35195 3.45086 5.39302C3.48332 5.43301 3.59153 5.52864 3.77547 5.67991C3.95943 5.83118 4.20019 6.00678 4.49775 6.20668C4.79532 6.40658 5.12534 6.60379 5.48783 6.79829C5.85033 6.99279 6.23987 7.16838 6.65645 7.32506C7.07304 7.48175 7.3652 7.5844 7.53291 7.63302C7.70064 7.68165 7.98738 7.74377 8.39315 7.81942C8.79892 7.89506 9.10461 7.94369 9.31019 7.96529C9.51579 7.9869 9.65646 7.99933 9.73219 8.00257L9.84581 8.00582L9.84258 7.9815L9.83769 7.95719L9.80523 7.75459C9.78359 7.61952 9.77277 7.43042 9.77277 7.18729C9.77277 6.94416 9.79171 6.71995 9.82958 6.51464C9.86746 6.30933 9.92427 6.10133 10 5.89062C10.0757 5.67991 10.1499 5.51079 10.2224 5.38329C10.296 5.25687 10.3923 5.11261 10.5113 4.95053C10.6303 4.78845 10.7845 4.62096 10.9739 4.44807C11.1632 4.27517 11.3796 4.12119 11.6231 3.98613C11.8665 3.85107 12.0911 3.7484 12.2967 3.67817C12.5023 3.60794 12.6754 3.562 12.8161 3.5404C12.9567 3.51879 13.0271 3.50636 13.0271 3.50312Z" fill="#121008"/>
</svg>
