<svg width="42" height="42" viewBox="0 0 42 42" fill="none" xmlns="http://www.w3.org/2000/svg">
<path d="M32.0248 9.99251C31.3423 9.31001 30.2398 9.31001 29.5573 9.99251L20.9998 18.5325L12.4423 9.97501C11.7598 9.29251 10.6573 9.29251 9.97477 9.97501C9.29227 10.6575 9.29227 11.76 9.97477 12.4425L18.5323 21L9.97477 29.5575C9.29227 30.24 9.29227 31.3425 9.97477 32.025C10.6573 32.7075 11.7598 32.7075 12.4423 32.025L20.9998 23.4675L29.5573 32.025C30.2398 32.7075 31.3423 32.7075 32.0248 32.025C32.7073 31.3425 32.7073 30.24 32.0248 29.5575L23.4673 21L32.0248 12.4425C32.6898 11.7775 32.6898 10.6575 32.0248 9.99251Z" fill="black"/>
</svg>
