<svg width="25" height="25" viewBox="0 0 25 25" fill="none" xmlns="http://www.w3.org/2000/svg">
<path d="M20.7573 4.15137H4.15142C3.00976 4.15137 2.08606 5.08545 2.08606 6.2271L2.07568 18.6815C2.07568 19.8231 3.00976 20.7572 4.15142 20.7572H20.7573C21.8989 20.7572 22.833 19.8231 22.833 18.6815V6.2271C22.833 5.08545 21.8989 4.15137 20.7573 4.15137ZM20.3421 8.5623L13.0044 13.1497C12.6723 13.3572 12.2364 13.3572 11.9043 13.1497L4.56656 8.5623C4.3071 8.39624 4.15142 8.11602 4.15142 7.81504C4.15142 7.11966 4.90906 6.70452 5.50064 7.06777L12.4543 11.4164L19.408 7.06777C19.9996 6.70452 20.7573 7.11966 20.7573 7.81504C20.7573 8.11602 20.6016 8.39624 20.3421 8.5623Z" fill="black"/>
</svg>
