<svg width="25" height="26" viewBox="0 0 25 26" fill="none" xmlns="http://www.w3.org/2000/svg">
<path d="M12.4545 2.98438C8.43797 2.98438 5.18945 6.2329 5.18945 10.2494C5.18945 12.0553 5.70839 13.747 6.65284 15.2727C7.63882 16.871 8.93615 18.241 9.9325 19.8393C10.4203 20.6177 10.7732 21.3442 11.1468 22.1849C11.4167 22.7557 11.6346 23.7417 12.4545 23.7417C13.2744 23.7417 13.4924 22.7557 13.7518 22.1849C14.1359 21.3442 14.4784 20.6177 14.9662 19.8393C15.9625 18.2514 17.2598 16.8814 18.2458 15.2727C19.2006 13.747 19.7196 12.0553 19.7196 10.2494C19.7196 6.2329 16.4711 2.98438 12.4545 2.98438ZM12.4545 13.1036C11.0223 13.1036 9.85985 11.9412 9.85985 10.5089C9.85985 9.07665 11.0223 7.91424 12.4545 7.91424C13.8868 7.91424 15.0492 9.07665 15.0492 10.5089C15.0492 11.9412 13.8868 13.1036 12.4545 13.1036Z" fill="black"/>
</svg>
