<svg width="85" height="19" viewBox="0 0 85 19" fill="none" xmlns="http://www.w3.org/2000/svg">
<g id="logo">
<path d="M8.7 2.80295V0.052948H0V18.9471H8.7V16.1971C6.9178 16.1971 5.20857 15.4915 3.9484 14.2355C2.6882 12.9796 1.98022 11.2762 1.98022 9.50001C1.98022 7.72384 2.6882 6.02039 3.9484 4.76447C5.20857 3.50853 6.9178 2.80295 8.7 2.80295Z" fill="#121008"/>
<path d="M8.7 2.80295V16.1971C10.4822 16.1971 12.1914 15.4915 13.4516 14.2355C14.7118 12.9796 15.4198 11.2762 15.4198 9.50001C15.4198 7.72384 14.7118 6.02039 13.4516 4.76447C12.1914 3.50853 10.4822 2.80295 8.7 2.80295Z" fill="#121008"/>
<path d="M20.3022 4.48531H22.2499V13.8353H20.3022V4.48531Z" fill="#121008"/>
<path d="M23.3407 10.6324C23.3407 9.95968 23.5411 9.30214 23.9165 8.74308C24.2919 8.18403 24.8254 7.74862 25.4494 7.49206C26.0734 7.23557 26.7597 7.16944 27.4214 7.30208C28.0831 7.43473 28.6905 7.7602 29.1664 8.23721C29.6423 8.71429 29.9654 9.32136 30.0947 9.98162C30.224 10.6419 30.1537 11.3255 29.8927 11.9459C29.6317 12.5662 29.1919 13.0955 28.6288 13.4664C28.0657 13.8373 27.4047 14.0332 26.7298 14.0294C26.2821 14.0329 25.8382 13.9473 25.4242 13.7775C25.0102 13.6078 24.6342 13.3574 24.3186 13.041C24.0029 12.7246 23.7539 12.3486 23.5859 11.935C23.418 11.5214 23.3346 11.0785 23.3407 10.6324ZM28.2231 10.6324C28.2154 10.3424 28.1221 10.061 27.9549 9.82361C27.7876 9.58614 27.5539 9.40308 27.2827 9.29735C27.0117 9.19162 26.7154 9.16788 26.4309 9.22915C26.1463 9.29037 25.8862 9.43382 25.683 9.64165C25.4799 9.84943 25.3427 10.1123 25.2887 10.3974C25.2347 10.6824 25.2662 10.9771 25.3793 11.2444C25.4924 11.5117 25.682 11.7399 25.9246 11.9003C26.1671 12.0607 26.4516 12.1464 26.7428 12.1465C26.941 12.1504 27.1378 12.1134 27.3211 12.038C27.5043 11.9626 27.6699 11.8503 27.8076 11.7082C27.9453 11.5661 28.0521 11.3972 28.1214 11.2121C28.1907 11.027 28.2209 10.8297 28.2101 10.6324H28.2231Z" fill="#121008"/>
<path d="M37.8255 7.42943V13.5182C37.8255 15.6665 36.1375 16.5788 34.4299 16.5788C33.8276 16.6281 33.2235 16.5088 32.6856 16.2345C32.1476 15.9601 31.6972 15.5415 31.3849 15.0259L33.0275 14.0812C33.1606 14.3487 33.3724 14.5693 33.6345 14.7138C33.8967 14.8583 34.1968 14.9198 34.4949 14.89C34.6848 14.9133 34.8775 14.8945 35.0592 14.835C35.241 14.7754 35.4072 14.6766 35.5462 14.5455C35.6852 14.4144 35.7934 14.2544 35.863 14.0768C35.9327 13.8992 35.9621 13.7085 35.9492 13.5182V12.9294C35.7225 13.2033 35.4349 13.4207 35.1092 13.5645C34.7835 13.7083 34.4287 13.7744 34.0728 13.7577C33.2119 13.7577 32.3862 13.4168 31.7774 12.81C31.1686 12.2034 30.8266 11.3804 30.8266 10.5224C30.8266 9.6643 31.1686 8.84144 31.7774 8.23469C32.3862 7.62794 33.2119 7.28707 34.0728 7.28707C34.4287 7.27031 34.7835 7.33644 35.1092 7.48022C35.4349 7.624 35.7225 7.84141 35.9492 8.11531V7.46825L37.8255 7.42943ZM35.9492 10.503C35.9621 10.1934 35.8819 9.88702 35.7187 9.62328C35.5555 9.35954 35.317 9.15047 35.0336 9.02294C34.7503 8.8954 34.4352 8.85528 34.1287 8.9077C33.8224 8.96011 33.5386 9.10265 33.3142 9.31703C33.0897 9.5314 32.9348 9.80782 32.8692 10.1107C32.8036 10.4136 32.8304 10.729 32.9462 11.0166C33.062 11.3041 33.2615 11.5506 33.5189 11.7243C33.7764 11.8979 34.0801 11.9909 34.391 11.9912C34.5939 12.0057 34.7975 11.9777 34.9888 11.909C35.1801 11.8402 35.3549 11.7322 35.5017 11.592C35.6486 11.4517 35.7643 11.2823 35.8413 11.0948C35.9184 10.9072 35.9551 10.7055 35.9492 10.503Z" fill="#121008"/>
<path d="M38.9228 10.6324C38.9228 9.9602 39.1229 9.30318 39.4977 8.74438C39.8725 8.18558 40.4052 7.75017 41.0284 7.49329C41.6516 7.23634 42.3373 7.16944 42.9987 7.30105C43.6601 7.43266 44.2674 7.75684 44.7439 8.23255C45.2203 8.70834 45.5444 9.31424 45.6752 9.97359C45.806 10.633 45.7376 11.3162 45.4786 11.9368C45.2196 12.5575 44.7817 13.0876 44.2203 13.4601C43.6589 13.8326 42.9993 14.0307 42.3248 14.0294C41.8763 14.0338 41.4314 13.9488 41.0163 13.7795C40.6011 13.6103 40.2241 13.3601 39.9072 13.0437C39.5903 12.7273 39.34 12.351 39.171 11.937C39.002 11.5229 38.9176 11.0794 38.9228 10.6324ZM43.8051 10.6324C43.7975 10.3421 43.704 10.0605 43.5365 9.8229C43.369 9.58536 43.1348 9.40231 42.8633 9.29677C42.5919 9.19124 42.2952 9.16788 42.0105 9.22967C41.7258 9.2914 41.4658 9.43557 41.2629 9.64398C41.06 9.8524 40.9233 10.1159 40.8701 10.4014C40.8168 10.6868 40.8492 10.9816 40.9632 11.2488C41.0773 11.5161 41.268 11.7438 41.5114 11.9034C41.7547 12.0631 42.04 12.1476 42.3313 12.1465C42.5296 12.1504 42.7264 12.1134 42.9096 12.038C43.0929 11.9626 43.2585 11.8503 43.3962 11.7082C43.5339 11.5661 43.6407 11.3972 43.71 11.2121C43.7792 11.027 43.8094 10.8297 43.7987 10.6324H43.8051Z" fill="#121008"/>
<path d="M46.6294 5.71472C46.6294 5.48695 46.6972 5.26424 46.8242 5.07484C46.9512 4.88542 47.1317 4.7378 47.3428 4.65062C47.554 4.56345 47.7864 4.54064 48.0106 4.58508C48.2347 4.62952 48.4406 4.73922 48.6023 4.9003C48.7639 5.06138 48.8739 5.26663 48.9185 5.49C48.9631 5.71342 48.9402 5.94501 48.8528 6.1555C48.7653 6.36592 48.6172 6.5458 48.4271 6.67237C48.2371 6.79893 48.0137 6.86648 47.7851 6.86648C47.4796 6.86312 47.1876 6.7407 46.9716 6.52542C46.7556 6.31014 46.6328 6.01916 46.6294 5.71472ZM46.8177 7.42942H48.7654V13.8353H46.8177V7.42942Z" fill="#121008"/>
<path d="M57.1019 10.6324C57.1237 11.0584 57.0608 11.4845 56.9167 11.8862C56.7727 12.2879 56.5503 12.6573 56.2625 12.973C55.9746 13.2887 55.627 13.5446 55.2395 13.7259C54.8521 13.9072 54.4325 14.0103 54.0049 14.0294C53.6421 14.0535 53.2784 13.9956 52.9412 13.86C52.6039 13.7244 52.3017 13.5147 52.0572 13.2465V16.4106H50.1094V7.42943H52.0572V8.03119C52.3021 7.76376 52.6045 7.55502 52.9418 7.42056C53.2791 7.28604 53.6425 7.22935 54.0049 7.25472C54.4308 7.27381 54.8488 7.37637 55.2349 7.55644C55.621 7.73652 55.9677 7.99068 56.2553 8.30431C56.5429 8.61794 56.7657 8.98495 56.9109 9.38445C57.0562 9.78388 57.1211 10.2079 57.1019 10.6324ZM55.1541 10.6324C55.1464 10.3318 55.0499 10.0402 54.8767 9.79417C54.7035 9.54809 54.4612 9.35837 54.1802 9.24895C53.8993 9.13947 53.5922 9.11514 53.2974 9.17888C53.0026 9.24261 52.7333 9.3917 52.5231 9.60736C52.313 9.82302 52.1714 10.0957 52.1161 10.3913C52.0608 10.6868 52.0942 10.992 52.2123 11.2687C52.3303 11.5453 52.5276 11.7811 52.7795 11.9465C53.0314 12.1119 53.3267 12.1994 53.6284 12.1982C53.835 12.207 54.0411 12.1721 54.2332 12.0959C54.4254 12.0197 54.5992 11.9038 54.7433 11.756C54.8873 11.6081 54.9983 11.4315 55.0692 11.2379C55.14 11.0443 55.1689 10.8379 55.1541 10.6324Z" fill="#121008"/>
<path d="M63.0295 11.9135C63.0295 13.3888 61.731 14.0165 60.3546 14.0165C59.7932 14.0668 59.2296 13.9482 58.7366 13.676C58.2435 13.4038 57.8437 12.9904 57.5888 12.4894L59.2639 11.5447C59.3302 11.7756 59.4741 11.9768 59.6715 12.1146C59.8689 12.2524 60.1077 12.3185 60.3481 12.3018C60.8091 12.3018 61.0428 12.1594 61.0428 11.9006C61.0428 11.1953 57.881 11.5706 57.881 9.35119C57.881 7.95354 59.0626 7.25472 60.4001 7.25472C60.9084 7.23201 61.4136 7.34699 61.8616 7.58737C62.3097 7.82775 62.6841 8.18461 62.9451 8.62001L61.2701 9.50001C61.1961 9.33307 61.0752 9.19111 60.9219 9.0912C60.7687 8.9913 60.5897 8.93778 60.4066 8.93707C60.069 8.93707 59.8677 9.06648 59.8677 9.29295C59.8677 10.0306 63.0295 9.54531 63.0295 11.9135Z" fill="#121008"/>
<path d="M70.0869 7.42943V13.8353H68.1392V13.2335C67.9178 13.4999 67.6367 13.7107 67.3192 13.849C67.001 13.9872 66.655 14.049 66.3083 14.0294C65.0098 14.0294 63.8996 13.1041 63.8996 11.3765V7.42943H65.8473V11.0853C65.8317 11.2381 65.8499 11.3925 65.9006 11.5377C65.9512 11.6828 66.0323 11.8153 66.1388 11.9261C66.246 12.0368 66.3758 12.1231 66.5193 12.1791C66.6628 12.235 66.8166 12.2592 66.9705 12.25C67.6717 12.25 68.1651 11.8359 68.1651 10.9559V7.42943H70.0869Z" fill="#121008"/>
<path d="M81.1243 9.90119V13.8353H79.1765V10.0694C79.1765 9.42237 78.8713 9.02119 78.2546 9.02119C77.6378 9.02119 77.2482 9.46766 77.2482 10.2247V13.8353H75.3004V10.0694C75.3004 9.42237 74.9953 9.02119 74.3785 9.02119C73.7617 9.02119 73.3722 9.46766 73.3722 10.2247V13.8353H71.4244V7.42943H73.3722V8.01825C73.5741 7.75813 73.837 7.55211 74.1389 7.41881C74.4402 7.28552 74.7707 7.2291 75.0992 7.25472C75.4284 7.23757 75.7569 7.30616 76.0516 7.45363C76.3464 7.60109 76.5977 7.82245 76.7807 8.0959C76.995 7.81015 77.2781 7.58317 77.604 7.43609C77.9293 7.28895 78.2877 7.22657 78.6441 7.25472C80.1634 7.25472 81.1243 8.30296 81.1243 9.90119Z" fill="#121008"/>
<path d="M82.7604 7.3906C83.5492 7.3906 84.1887 6.75325 84.1887 5.96707C84.1887 5.1809 83.5492 4.54354 82.7604 4.54354C81.9715 4.54354 81.332 5.1809 81.332 5.96707C81.332 6.75325 81.9715 7.3906 82.7604 7.3906Z" fill="#121008"/>
</g>
</svg>
